<mxfile host="app.diagrams.net" modified="2024-03-01T00:26:05.181Z" agent="Mozilla/5.0 (Windows NT 10.0; Win64; x64) AppleWebKit/537.36 (KHTML, like Gecko) Chrome/122.0.0.0 Safari/537.36 Edg/122.0.0.0" etag="2yW26DB8hZD7-m2AHYmr" version="23.1.5" type="github">
  <diagram id="L2hyXpvMp3_cJZaIQRUS" name="Page-1">
    <mxGraphModel dx="942" dy="855" grid="1" gridSize="10" guides="1" tooltips="1" connect="1" arrows="1" fold="1" page="1" pageScale="1" pageWidth="850" pageHeight="1100" math="0" shadow="0">
      <root>
        <mxCell id="0" />
        <mxCell id="1" parent="0" />
        <mxCell id="8VV8omLyc1-ldVU0Ih8G-2" value="Delta Parquet Files" style="rounded=1;whiteSpace=wrap;html=1;verticalAlign=bottom;" vertex="1" parent="1">
          <mxGeometry x="25.5" y="220" width="90" height="340" as="geometry" />
        </mxCell>
        <mxCell id="8VV8omLyc1-ldVU0Ih8G-3" value="" style="image;aspect=fixed;html=1;points=[];align=center;fontSize=12;image=img/lib/azure2/storage/Storage_Accounts.svg;" vertex="1" parent="1">
          <mxGeometry x="35.5" y="230" width="25" height="20" as="geometry" />
        </mxCell>
        <mxCell id="8VV8omLyc1-ldVU0Ih8G-4" value="DimCustomer" style="image;aspect=fixed;html=1;points=[];align=center;fontSize=12;image=img/lib/azure2/general/Files.svg;" vertex="1" parent="1">
          <mxGeometry x="47.64" y="270" width="45.71" height="50" as="geometry" />
        </mxCell>
        <mxCell id="8VV8omLyc1-ldVU0Ih8G-5" value="DimOther" style="image;aspect=fixed;html=1;points=[];align=center;fontSize=12;image=img/lib/azure2/general/Files.svg;" vertex="1" parent="1">
          <mxGeometry x="47.64" y="360" width="45.71" height="50" as="geometry" />
        </mxCell>
        <mxCell id="8VV8omLyc1-ldVU0Ih8G-6" value="FactSales" style="image;aspect=fixed;html=1;points=[];align=center;fontSize=12;image=img/lib/azure2/general/Files.svg;" vertex="1" parent="1">
          <mxGeometry x="47.64" y="450" width="45.71" height="50" as="geometry" />
        </mxCell>
        <mxCell id="8VV8omLyc1-ldVU0Ih8G-7" value="SQL Serverless" style="rounded=1;whiteSpace=wrap;html=1;verticalAlign=bottom;" vertex="1" parent="1">
          <mxGeometry x="155.5" y="220" width="90" height="340" as="geometry" />
        </mxCell>
        <mxCell id="8VV8omLyc1-ldVU0Ih8G-8" value="" style="image;aspect=fixed;html=1;points=[];align=center;fontSize=12;image=img/lib/azure2/analytics/Azure_Synapse_Analytics.svg;" vertex="1" parent="1">
          <mxGeometry x="165.5" y="230" width="34.78" height="40" as="geometry" />
        </mxCell>
        <mxCell id="8VV8omLyc1-ldVU0Ih8G-9" value="" style="sketch=0;points=[[0,0,0],[0.25,0,0],[0.5,0,0],[0.75,0,0],[1,0,0],[0,1,0],[0.25,1,0],[0.5,1,0],[0.75,1,0],[1,1,0],[0,0.25,0],[0,0.5,0],[0,0.75,0],[1,0.25,0],[1,0.5,0],[1,0.75,0]];outlineConnect=0;fontColor=#232F3E;fillColor=#8C4FFF;strokeColor=#ffffff;dashed=0;verticalLabelPosition=bottom;verticalAlign=top;align=center;html=1;fontSize=12;fontStyle=0;aspect=fixed;shape=mxgraph.aws4.resourceIcon;resIcon=mxgraph.aws4.sql_workbench;" vertex="1" parent="1">
          <mxGeometry x="180.5" y="380" width="40" height="40" as="geometry" />
        </mxCell>
        <mxCell id="8VV8omLyc1-ldVU0Ih8G-10" value="Power BI Premium" style="rounded=1;whiteSpace=wrap;html=1;verticalAlign=bottom;" vertex="1" parent="1">
          <mxGeometry x="290" y="220" width="90" height="340" as="geometry" />
        </mxCell>
        <mxCell id="8VV8omLyc1-ldVU0Ih8G-1" value="" style="image;aspect=fixed;html=1;points=[];align=center;fontSize=12;image=img/lib/azure2/analytics/Power_BI_Embedded.svg;" vertex="1" parent="1">
          <mxGeometry x="300" y="230" width="37.5" height="50" as="geometry" />
        </mxCell>
      </root>
    </mxGraphModel>
  </diagram>
</mxfile>
